<?xml version="1.0" encoding="UTF-8" standalone="no"?><!DOCTYPE svg PUBLIC "-//W3C//DTD SVG 1.1//EN" "http://www.w3.org/Graphics/SVG/1.1/DTD/svg11.dtd"><svg width="100%" height="100%" viewBox="0 0 73 76" version="1.1" xmlns="http://www.w3.org/2000/svg" xmlns:xlink="http://www.w3.org/1999/xlink" xml:space="preserve" xmlns:serif="http://www.serif.com/" style="fill-rule:evenodd;clip-rule:evenodd;stroke-linejoin:round;stroke-miterlimit:2;"><g><path d="M38.115,9.346c-0.017,0.095 -0.211,1.194 -0.211,1.194c-1.328,2.293 -10.893,18.811 -9.991,31.626c0.129,1.835 10.234,0.603 11.634,1.064c0.008,0.002 1.29,-0.01 -0.58,9.021c-16.675,-0.432 -16.542,-1.517 -25.394,-4.622c-0.802,-0.281 -2.186,1.435 -1.951,2.501c0.018,0.08 7.68,5.824 27.332,5.227c1.432,5.287 0.761,5.364 1.904,10.762c-1.641,-0.35 -1.65,-0.262 -17.972,-0.262c-22.052,-0 -22.736,0.209 -22.808,-0.957c-0.088,-1.422 0.048,-49.751 -0.075,-54.195c-0.057,-2.058 1.126,-1.651 18.908,-1.651c16.75,-0 16.754,-0.069 19.205,0.293Z" style="fill:#4c66cc;"/><path d="M43.117,8.596c2.134,0.66 2.11,0.458 4.286,0.459c24.018,0.008 24.705,-0.24 24.862,1.01c0.124,0.996 0.019,49.767 0.01,54.095c-0.004,2.072 -1.147,1.65 -18.246,1.65c-7.891,0 -7.89,-0.421 -8.557,-0.265c-0.355,0.083 -0.539,0.551 -0.893,0.634c-0.24,-0.779 -2.129,-6.902 -1.793,-10.032c0.2,-1.868 10.253,-1.489 17.75,-5.546c1.446,-0.782 0.077,-3.489 -1.958,-2.7c-1.202,0.466 -15.966,6.184 -15.841,2.9c0.157,-4.14 1.642,-9.958 1.636,-10.041c-0.14,-1.98 -10.7,-0.59 -12.305,-1.105c-1.386,-0.445 0.079,-14.88 11.05,-31.059Z" style="fill:#87a1d4;"/><path d="M43.117,8.596c-10.971,16.178 -12.435,30.614 -11.05,31.059c1.605,0.515 12.165,-0.875 12.305,1.105c0.006,0.083 -1.479,5.901 -1.636,10.041c-0.125,3.284 14.639,-2.435 15.841,-2.9c2.035,-0.788 3.404,1.918 1.958,2.7c-7.498,4.057 -17.55,3.678 -17.75,5.546c-0.336,3.13 1.553,9.253 1.793,10.032c2.436,7.326 3.527,7.812 2.082,8.536c-2.557,1.281 -2.829,-0.159 -5.803,-8.595c-1.143,-5.398 -0.473,-5.475 -1.904,-10.762c0.071,-1.564 0.164,-1.506 0.012,-3.106c1.87,-9.031 0.588,-9.018 0.58,-9.021c-1.4,-0.461 -11.504,0.772 -11.634,-1.064c-0.902,-12.815 8.663,-29.333 9.991,-31.626c0,-0 0.194,-1.098 0.211,-1.194c3.768,-3.109 6.662,-12.146 9.749,-8.489c0.854,1.012 -0.014,1.119 -4.746,7.739Z"/><path d="M38.966,52.25c0.152,1.6 0.058,1.542 -0.012,3.106c-19.652,0.596 -27.314,-5.147 -27.332,-5.227c-0.236,-1.066 1.148,-2.782 1.951,-2.501c8.852,3.105 8.719,4.19 25.394,4.622Z" style="fill:#008;"/><path d="M17.894,23.398c0.068,-3.754 -0.619,-5.607 3.074,-4.955c1.417,0.25 1.483,8.223 -0.106,8.64c-2.915,0.764 -2.661,-0.63 -2.968,-3.685Z" style="fill:#008;"/><path d="M48.374,24.067c0.067,-4.111 -0.977,-6.323 3.073,-5.627c1.424,0.245 1.484,8.239 -0.102,8.646c-2.602,0.667 -2.622,-0.306 -2.971,-3.019Z"/></g></svg>