<?xml version="1.0" encoding="UTF-8" standalone="no"?><!DOCTYPE svg PUBLIC "-//W3C//DTD SVG 1.1//EN" "http://www.w3.org/Graphics/SVG/1.1/DTD/svg11.dtd"><svg width="100%" height="100%" viewBox="0 0 20 60" version="1.1" xmlns="http://www.w3.org/2000/svg" xmlns:xlink="http://www.w3.org/1999/xlink" xml:space="preserve" xmlns:serif="http://www.serif.com/" style="fill-rule:evenodd;clip-rule:evenodd;stroke-linejoin:round;stroke-miterlimit:2;"><g><path d="M19.271,45.344l0,9.288c0,2.563 -2.081,4.644 -4.644,4.644l-9.288,0c-2.563,0 -4.644,-2.081 -4.644,-4.644l0,-9.288c0,-2.563 2.081,-4.644 4.644,-4.644l9.288,0c2.563,0 4.644,2.081 4.644,4.644Z" style="fill:#9180bd;"/><path d="M19.271,45.344l0,9.288c0,2.563 -2.081,4.644 -4.644,4.644l-9.288,0c-2.563,0 -4.644,-2.081 -4.644,-4.644l0,-9.288c0,-2.563 2.081,-4.644 4.644,-4.644l9.288,0c2.563,0 4.644,2.081 4.644,4.644Z" style="fill:#9180bd;"/><path d="M13.674,44.908l1.787,1.75l-3.477,3.404l3.477,3.404l-1.787,1.75l-3.477,-3.404l-3.477,3.404l-1.787,-1.75l3.477,-3.404l-3.477,-3.404l1.787,-1.75l3.477,3.404l3.477,-3.404Z" style="fill:#564768;"/><path d="M19.271,5.343l0,9.288c0,2.563 -2.081,4.644 -4.644,4.644l-9.288,0c-2.563,0 -4.644,-2.081 -4.644,-4.644l0,-9.288c0,-2.563 2.081,-4.644 4.644,-4.644l9.288,0c2.563,0 4.644,2.081 4.644,4.644Z" style="fill:#9180bd;"/><path d="M19.271,5.343l0,9.288c0,2.563 -2.081,4.644 -4.644,4.644l-9.288,0c-2.563,0 -4.644,-2.081 -4.644,-4.644l0,-9.288c0,-2.563 2.081,-4.644 4.644,-4.644l9.288,0c2.563,0 4.644,2.081 4.644,4.644Z" style="fill:#9180bd;"/><path d="M13.674,4.906l1.787,1.75l-3.477,3.404l3.477,3.404l-1.787,1.75l-3.477,-3.404l-3.477,3.404l-1.787,-1.75l3.477,-3.404l-3.477,-3.404l1.787,-1.75l3.477,3.404l3.477,-3.404Z" style="fill:#fff;"/><path d="M19.271,25.344l0,9.288c0,2.563 -2.081,4.644 -4.644,4.644l-9.288,0c-2.563,0 -4.644,-2.081 -4.644,-4.644l0,-9.288c0,-2.563 2.081,-4.644 4.644,-4.644l9.288,0c2.563,0 4.644,2.081 4.644,4.644Z" style="fill:#9180bd;"/><path d="M19.271,25.344l0,9.288c0,2.563 -2.081,4.644 -4.644,4.644l-9.288,0c-2.563,0 -4.644,-2.081 -4.644,-4.644l0,-9.288c0,-2.563 2.081,-4.644 4.644,-4.644l9.288,0c2.563,0 4.644,2.081 4.644,4.644Z" style="fill:#9180bd;"/><path d="M13.674,24.908l1.787,1.75l-3.477,3.404l3.477,3.404l-1.787,1.75l-3.477,-3.404l-3.477,3.404l-1.787,-1.75l3.477,-3.404l-3.477,-3.404l1.787,-1.75l3.477,3.404l3.477,-3.404Z" style="fill:#fff;"/><path d="M19.271,5.343l0,9.288c0,2.563 -2.081,4.644 -4.644,4.644l-9.288,0c-2.563,0 -4.644,-2.081 -4.644,-4.644l0,-9.288c0,-2.563 2.081,-4.644 4.644,-4.644l9.288,0c2.563,0 4.644,2.081 4.644,4.644Z" style="fill:#9180bd;"/><path d="M19.271,5.343l0,9.288c0,2.563 -2.081,4.644 -4.644,4.644l-9.288,0c-2.563,0 -4.644,-2.081 -4.644,-4.644l0,-9.288c0,-2.563 2.081,-4.644 4.644,-4.644l9.288,0c2.563,0 4.644,2.081 4.644,4.644Z" style="fill:#9180bd;"/></g><path d="M13.674,4.906l1.787,1.75l-3.477,3.404l3.477,3.404l-1.787,1.75l-3.477,-3.404l-3.477,3.404l-1.787,-1.75l3.477,-3.404l-3.477,-3.404l1.787,-1.75l3.477,3.404l3.477,-3.404Z" style="fill:#fff;"/></svg>