<?xml version="1.0" encoding="UTF-8" standalone="no"?>
<!DOCTYPE svg PUBLIC "-//W3C//DTD SVG 1.1//EN" "http://www.w3.org/Graphics/SVG/1.1/DTD/svg11.dtd">
<svg width="100%" height="100%" viewBox="0 0 274 274" version="1.1" xmlns="http://www.w3.org/2000/svg" xmlns:xlink="http://www.w3.org/1999/xlink" xml:space="preserve" xmlns:serif="http://www.serif.com/" style="fill-rule:evenodd;clip-rule:evenodd;stroke-linejoin:round;stroke-miterlimit:2;">
    <g transform="matrix(1,0,0,1,-116.538463,-122.277199)">
        <g transform="matrix(0.33571,0,0,0.33571,83.68419,87.212223)">
            <g transform="matrix(5.447385,0,0,5.447385,-2110.482789,-1594.836197)">
                <path d="M410.94,407.732C404.451,392.777 401.112,384.844 415.6,378.754C452.631,363.189 452.389,362.96 489.472,347.436C510.937,338.449 525.565,328.779 531.44,343.525C531.892,344.661 536.304,357.913 536.304,357.913L513.729,366.716C508.086,369.242 506.542,377.107 509.969,385.31C512.951,392.45 521.594,395.136 525.343,393.713L547.226,384.984C551.595,395.187 563.061,410.732 546.591,417.708L444.726,460.477C440.151,462.765 434.727,461.434 432.669,457.483C430.463,453.246 426.435,445.099 418.043,424.781C421.159,426.626 425.264,427.324 430.344,426.129C435.42,424.935 438.624,420.777 438.988,418.767L432.609,418.013C430.751,421.062 426.68,421.215 426.636,421.224C425.791,421.157 422.799,421.679 419.955,418.926C418.092,417.123 416.857,412.564 418.262,412.535L439.668,412.239C441.207,398.42 427.498,390.065 416.933,397.44C413.557,399.797 411.566,403.617 410.94,407.732ZM501.37,394.936C500.592,394.915 499.816,394.853 499.038,394.832C488.791,394.558 485.089,403.716 486.687,403.936C487.178,404.004 492.502,404.737 492.876,403.825C495.22,398.099 503.199,400.032 504.524,402.521C509.042,411.008 488.813,404.617 485.636,414.138C481.417,426.776 499.67,430.352 504.55,422.426C505.848,420.318 505.18,423.051 505.188,425.507C505.19,426.225 508.2,426 511.144,425.988C511.974,425.984 511.693,423.195 511.707,414.802C511.724,404.011 513.403,396.505 501.37,394.936ZM505.046,415.265C503.326,425.445 487.467,421.565 492.617,414.88C494.266,412.739 497.241,413.343 504.645,411.374C505.374,411.181 505.048,414.955 505.046,415.265ZM466.58,393.728L459.127,393.728L452.26,415.017L444.536,388.735L437.021,388.735L447.991,426.579L455.753,426.579L462.854,404.061L469.954,426.579L477.716,426.579L488.686,388.735L481.171,388.735L473.448,415.017L466.58,393.728ZM427.118,400.301C427.83,400.506 433.217,402.055 433.13,407.351C433.122,407.82 432.825,407.726 418.726,407.749C416.797,407.752 417.393,406.813 418.107,405.059C420.382,399.47 426.309,400.201 427.118,400.301Z" style="fill:rgb(35,232,255);"/>
                <path d="M502.628,333.789C495.965,336.732 418.278,371.057 418.457,368.497C418.474,368.248 461.35,341.095 494.23,318.096C500.263,313.876 509.658,302.805 521.8,327.493C522.513,328.941 520.248,326.36 502.628,333.789Z" style="fill:rgb(35,232,255);"/>
                <path d="M514.478,384.245C513.4,381.983 509.821,373.659 519.625,369.402L538.813,361.805C540.802,361.257 542.148,361.619 542.971,363.186L548.407,376.875C549.149,378.769 547.984,380.611 546.46,381.064L527.774,388.335C519.41,391.046 515.522,386.433 514.478,384.245ZM524.759,373.636C521.812,373.636 519.419,376.029 519.419,378.976C519.419,381.924 521.812,384.317 524.759,384.317C527.707,384.317 530.1,381.924 530.1,378.976C530.1,376.029 527.707,373.636 524.759,373.636Z" style="fill:rgb(35,232,255);"/>
            </g>
        </g>
    </g>
</svg>
