<?xml version="1.0" encoding="UTF-8" standalone="no"?><!DOCTYPE svg PUBLIC "-//W3C//DTD SVG 1.1//EN" "http://www.w3.org/Graphics/SVG/1.1/DTD/svg11.dtd"><svg width="100%" height="100%" viewBox="0 0 105 105" version="1.1" xmlns="http://www.w3.org/2000/svg" xmlns:xlink="http://www.w3.org/1999/xlink" xml:space="preserve" xmlns:serif="http://www.serif.com/" style="fill-rule:evenodd;clip-rule:evenodd;stroke-linejoin:round;stroke-miterlimit:2;"><rect id="contact" x="0" y="0" width="104.144" height="104.144" style="fill:none;"/><g id="Background"><path d="M18.401,69.894l-4.126,0c-7.626,0 -13.817,-5.214 -13.817,-11.637l0,-41.697c0,-6.423 6.191,-11.637 13.817,-11.637l47.454,0c7.626,0 13.817,5.214 13.817,11.637l0,41.697c0,6.423 -6.191,11.637 -13.817,11.637l-27.916,0l-13.677,18.314c0,0 -0.514,0.406 -1.156,0.18c-0.62,-0.218 -0.561,-0.849 -0.561,-0.849l-0.017,-17.645Z" style="fill:#fff;"/><path d="M48.351,24.283c2.053,0.189 2.363,-0.085 2.391,0.546c0.209,4.674 -4.769,18.893 -1.308,20.351c10.447,4.404 13.985,-26.177 -7.479,-28.84c-28.045,-3.479 -33.738,30.535 -15.879,39.507c15.557,7.815 26.772,-2.805 27.401,-0.781c1.412,4.543 1.495,4.885 0.477,5.375c-16.57,7.968 -28.655,1.646 -32.268,-0.398c-19.744,-11.175 -15.199,-48.387 14.99,-49.557c35.716,-1.385 32.579,42.948 12.804,40.853c-6.908,-0.732 -6.655,-5.164 -7.744,-3.899c-0.466,0.541 -3.463,4.02 -8.068,4.014c-17.193,-0.025 -12.993,-26.686 0.385,-27.982c8.316,-0.806 9.994,5.731 10.406,2.099c0.212,-1.865 2.793,-1.263 3.892,-1.286Zm-18.215,10.077c-4.716,14.797 9.366,12.751 11.701,7.002c0.257,-0.633 2.948,-8.852 -1.082,-11.266c-1.966,-1.178 -4.519,-1.036 -6.004,-0.581c-2.658,0.815 -4.383,4.367 -4.616,4.845Z" style="fill:#5b63da;"/><path d="M102.994,42.939c2.174,19.925 -20.373,52.564 -44.861,59.062c-1.467,0.389 -10.424,3.326 -18.842,-4.988c-6.754,-6.671 -1.603,-11.404 -0.859,-12.119c8.294,-7.965 10.42,-12.89 18.913,-6.609c2.465,1.823 6.146,5.448 9.035,4.367c5.255,-1.966 15.265,-12.547 18.09,-23.442c0.853,-3.289 -11.709,-3.905 -6.964,-15.182c5.359,-12.737 5.755,-12.863 6.866,-13.593c5.051,-3.316 9.203,1.604 13.495,4.351c0.436,0.279 2.088,1.592 3.039,2.982c1.408,2.056 1.782,4.079 2.087,5.171Z" style="fill:#5b63da;"/></g></svg>