<?xml version="1.0" encoding="UTF-8" standalone="no"?><!DOCTYPE svg PUBLIC "-//W3C//DTD SVG 1.1//EN" "http://www.w3.org/Graphics/SVG/1.1/DTD/svg11.dtd"><svg width="100%" height="100%" viewBox="0 0 105 105" version="1.1" xmlns="http://www.w3.org/2000/svg" xmlns:xlink="http://www.w3.org/1999/xlink" xml:space="preserve" xmlns:serif="http://www.serif.com/" style="fill-rule:evenodd;clip-rule:evenodd;stroke-linejoin:round;stroke-miterlimit:2;"><g><path d="M33.222,104.165l-13.923,0c-10.746,0 -19.47,-8.724 -19.47,-19.47l-0,-65.389c0,-10.746 8.724,-19.47 19.47,-19.47l56.429,-0l-42.507,104.328Z" style="fill:#5b63da;"/><path d="M75.728,-0.164l8.96,0c10.746,0 19.47,8.724 19.47,19.47l0,65.389c0,10.746 -8.724,19.47 -19.47,19.47l-51.467,0l42.507,-104.328Z" style="fill:#fff;"/><path d="M96.42,89.255l-5.529,6.708c0,0 -5.054,-1.559 -11.62,-7.862c-9.676,6.261 -16.506,7.399 -16.506,7.399l-6.199,-8.127c0,0 10.245,-2.846 16.506,-6.261c-4.18,-4.477 -6.395,-10.652 -6.386,-10.863l8.031,-2.069c0,0 1.756,5.181 5.444,8.744c0,0 6.875,-3.294 6.875,-11.262l-27.801,0l0,-8.408l14.579,0l-0,-7.288l9.309,0l0,7.288l13.791,0c2.277,14.229 -10.952,25.242 -10.952,25.242c4.144,5.35 10.457,6.758 10.457,6.758Z" style="fill:#5b63da;fill-rule:nonzero;"/><g transform="matrix(50,0,0,50,45.248799,48.490076)"></g><text x="8.847px" y="48.49px" style="font-family:'Inter24pt-Bold', 'Inter 24pt';font-weight:700;font-size:50px;fill:#fff;">A</text></g></svg>