<?xml version="1.0" encoding="UTF-8" standalone="no"?><!DOCTYPE svg PUBLIC "-//W3C//DTD SVG 1.1//EN" "http://www.w3.org/Graphics/SVG/1.1/DTD/svg11.dtd"><svg width="100%" height="100%" viewBox="0 0 105 105" version="1.1" xmlns="http://www.w3.org/2000/svg" xmlns:xlink="http://www.w3.org/1999/xlink" xml:space="preserve" xmlns:serif="http://www.serif.com/" style="fill-rule:evenodd;clip-rule:evenodd;stroke-linejoin:round;stroke-miterlimit:2;"><g><path d="M103.776,17.957l0,68.28c0,9.769 -7.931,17.7 -17.7,17.7l-67.752,0c-9.769,0 -17.7,-7.931 -17.7,-17.7l-0,-68.28c0,-9.769 7.931,-17.7 17.7,-17.7l67.752,0c9.769,0 17.7,7.931 17.7,17.7Z" style="fill:#fff;"/><clipPath id="_clip1"><path d="M103.776,17.957l0,68.28c0,9.769 -7.931,17.7 -17.7,17.7l-67.752,0c-9.769,0 -17.7,-7.931 -17.7,-17.7l-0,-68.28c0,-9.769 7.931,-17.7 17.7,-17.7l67.752,0c9.769,0 17.7,7.931 17.7,17.7Z"/></clipPath><g clip-path="url(#_clip1)"><g><path d="M101.176,54.7l0,37.349c0,4.517 -3.667,8.184 -8.184,8.184l-31.325,0c-4.517,0 -8.184,-3.667 -8.184,-8.184l0,-37.349c0,-4.517 3.667,-8.184 8.184,-8.184l31.325,0c4.517,0 8.184,3.667 8.184,8.184Z" style="fill:#5b63da;"/><path d="M92.163,98.05c0,0 -5.513,-1.7 -12.675,-8.575c-10.554,6.829 -18.003,8.07 -18.003,8.07l-6.762,-8.865c0,0 11.174,-3.104 18.003,-6.829c-4.559,-4.883 -6.976,-11.618 -6.965,-11.848l8.76,-2.257c0,0 1.915,5.651 5.938,9.537c0,0 7.499,-3.593 7.499,-12.284l-30.322,0l0,-9.17l15.902,0l0,-7.949l10.154,0l0,7.949l15.042,0c2.483,15.52 -11.946,27.532 -11.946,27.532c4.52,5.836 11.406,7.371 11.406,7.371m-34.356,-90.486l-24.689,103.674l64.759,0l0,-103.674l-40.07,0Z" style="fill:#fff;fill-rule:nonzero;"/><path d="M19.534,29.875l12.596,0l-5.73,-17.742l-6.866,17.742Z" style="fill:#5b63da;fill-rule:nonzero;"/><path d="M35.564,35.601l-17.171,0l-6.301,14.309l-8.008,0l17.742,-44.077l8.586,0l20.033,44.077l-8.015,0l-6.866,-14.309Zm-35.305,-35.355l0,103.674l40.973,0l24.832,-103.674l-65.805,0Z" style="fill:#5b63da;fill-rule:nonzero;"/></g></g></g></svg>